<?xml version="1.0" encoding="UTF-8"?>
<svg width="256" height="256" viewBox="0 0 256 256" xmlns="http://www.w3.org/2000/svg" xmlns:xlink="http://www.w3.org/1999/xlink">
    <path id="Palette" fill="#000000" fill-rule="evenodd" stroke="none" d="M 196.685974 197.829132 C 168.895569 225.50592 135.952881 243.108887 105.411125 249.285675 C 95.963493 251.197144 81.287392 249.780151 76.389313 238.730667 C 72.72361 230.461197 83.296898 208.374603 83.75309 206.318848 C 84.818817 201.50502 83.862602 196.814545 80.695 193.658798 C 75.025497 188.011658 64.418907 189.420105 57.004612 196.805084 C 57.004612 196.805084 49.058926 205.047058 41.093281 212.981552 C 26.658066 227.356644 15.610515 218.086761 12.562893 211.523727 C -6.37607 170.75885 11.506698 108.561371 59.288418 60.966782 C 115.547272 4.928955 191.908875 -9.861847 229.851532 27.931396 C 267.79422 65.724625 252.942841 141.790344 196.685974 197.829132 Z M 53.705593 110.475723 C 45.815815 110.475723 39.419941 116.849609 39.419941 124.71225 C 39.419941 132.574844 45.815815 138.948792 53.705593 138.948792 C 61.595371 138.948792 67.991241 132.574844 67.991241 124.71225 C 67.991241 116.849609 61.595371 110.475723 53.705593 110.475723 Z M 86.086411 66.817032 C 78.19664 66.817032 71.800766 73.190933 71.800766 81.053558 C 71.800766 88.916199 78.19664 95.290085 86.086411 95.290085 C 93.976189 95.290085 100.372063 88.916199 100.372063 81.053558 C 100.372063 73.190933 93.976189 66.817032 86.086411 66.817032 Z M 107.533974 195.392792 C 114.095802 201.934967 125.810097 200.874802 133.695755 193.02005 C 141.581467 185.165283 142.63858 173.50177 136.076691 166.95961 C 129.514801 160.41745 117.791023 161.478561 109.905373 169.332367 C 102.019676 177.186157 100.962532 188.850632 107.533974 195.392792 Z M 133.705292 36.445786 C 125.815491 36.445786 119.419617 42.819672 119.419617 50.682312 C 119.419617 58.544907 125.815491 64.918839 133.705292 64.918839 C 141.595062 64.918839 147.990936 58.544907 147.990936 50.682312 C 147.990936 42.819672 141.595062 36.445786 133.705292 36.445786 Z M 186.086029 35.496689 C 178.196259 35.496689 171.800354 41.870575 171.800354 49.733215 C 171.800354 57.59581 178.196259 63.969711 186.086029 63.969711 C 193.9758 63.969711 200.371674 57.59581 200.371674 49.733215 C 200.371674 41.870575 193.9758 35.496689 186.086029 35.496689 Z M 214.657333 75.358963 C 206.767548 75.358963 200.371674 81.732849 200.371674 89.59549 C 200.371674 97.458084 206.767548 103.832016 214.657333 103.832016 C 222.547134 103.832016 228.942978 97.458084 228.942978 89.59549 C 228.942978 81.732849 222.547134 75.358963 214.657333 75.358963 Z"/>
    <text id="Galree-placeholder-logo" xml:space="preserve" x="30.436523" y="160" font-family="Helvetica" font-size="18" fill="#ffffff">Galree placeholder logo</text>
</svg>